<?xml version="1.0" encoding="utf-8"?>
<!-- Generator: Adobe Illustrator 18.0.0, SVG Export Plug-In . SVG Version: 6.00 Build 0)  -->
<!DOCTYPE svg PUBLIC "-//W3C//DTD SVG 1.1//EN" "http://www.w3.org/Graphics/SVG/1.1/DTD/svg11.dtd">
<svg version="1.1" id="Ebene_1" xmlns="http://www.w3.org/2000/svg" xmlns:xlink="http://www.w3.org/1999/xlink" x="0px" y="0px"
	 viewBox="0 0 17 4" enable-background="new 0 0 17 4" xml:space="preserve">
<g>
	<path fill="#FFFFFF" d="M3.1,2c0,0.2,0,0.4-0.1,0.6S2.8,3,2.6,3.1S2.3,3.3,2.1,3.4S1.8,3.5,1.5,3.5c-0.2,0-0.4,0-0.6-0.1
		S0.6,3.2,0.4,3.1S0.2,2.8,0.1,2.6S0,2.2,0,2s0-0.4,0.1-0.6S0.3,1,0.4,0.9s0.3-0.3,0.5-0.3s0.4-0.1,0.6-0.1c0.2,0,0.4,0,0.6,0.1
		s0.4,0.2,0.5,0.3S2.9,1.2,3,1.4S3.1,1.8,3.1,2z M10.1,2c0,0.2,0,0.4-0.1,0.6S9.7,3,9.6,3.1S9.3,3.3,9.1,3.4S8.7,3.5,8.5,3.5
		s-0.4,0-0.6-0.1S7.5,3.2,7.4,3.1S7.2,2.8,7.1,2.6S7,2.2,7,2s0-0.4,0.1-0.6S7.3,1,7.4,0.9s0.3-0.3,0.5-0.3s0.4-0.1,0.6-0.1
		s0.4,0,0.6,0.1s0.4,0.2,0.5,0.3s0.3,0.3,0.3,0.5S10.1,1.8,10.1,2z M17,2c0,0.2,0,0.4-0.1,0.6S16.7,3,16.6,3.1s-0.3,0.3-0.5,0.3
		s-0.4,0.1-0.6,0.1c-0.2,0-0.4,0-0.6-0.1s-0.4-0.2-0.5-0.3S14.1,2.8,14,2.6S13.9,2.2,13.9,2s0-0.4,0.1-0.6s0.2-0.4,0.3-0.5
		s0.3-0.3,0.5-0.3s0.4-0.1,0.6-0.1c0.2,0,0.4,0,0.6,0.1s0.4,0.2,0.5,0.3s0.3,0.3,0.3,0.5S17,1.8,17,2z"/>
</g>
</svg>
