<?xml version="1.0" encoding="utf-8"?>
<!-- Generator: Adobe Illustrator 18.0.0, SVG Export Plug-In . SVG Version: 6.00 Build 0)  -->
<!DOCTYPE svg PUBLIC "-//W3C//DTD SVG 1.1//EN" "http://www.w3.org/Graphics/SVG/1.1/DTD/svg11.dtd">
<svg version="1.1" id="Ebene_1" xmlns="http://www.w3.org/2000/svg" xmlns:xlink="http://www.w3.org/1999/xlink" x="0px" y="0px"
	 viewBox="0 0 8 7" enable-background="new 0 0 8 7" xml:space="preserve">
<g>
	<path fill="#FFFFFF" d="M7.2,0.1c0.1,0,0.2,0,0.3,0.1s0.1,0.2,0.1,0.3v3.7c0,0.1,0,0.2-0.1,0.3S7.3,4.6,7.2,4.6H5.9v2.3L3.7,4.6
		H0.8c-0.1,0-0.1,0-0.2,0S0.5,4.6,0.5,4.5S0.4,4.4,0.4,4.4s0-0.1,0-0.2V0.5c0-0.1,0-0.2,0.1-0.3s0.2-0.1,0.3-0.1H7.2z"/>
</g>
</svg>
